<?xml version="1.0" encoding="UTF-8" standalone="no"?>
<svg
   xmlns:dc="http://purl.org/dc/elements/1.1/"
   xmlns:cc="http://creativecommons.org/ns#"
   xmlns:rdf="http://www.w3.org/1999/02/22-rdf-syntax-ns#"
   xmlns:svg="http://www.w3.org/2000/svg"
   xmlns="http://www.w3.org/2000/svg"
   id="svg19"
   version="1.1"
   viewBox="0 0 796 127"
   height="127pt"
   width="796pt">
  <metadata
     id="metadata25">
    <rdf:RDF>
      <cc:Work
         rdf:about="">
        <dc:format>image/svg+xml</dc:format>
        <dc:type
           rdf:resource="http://purl.org/dc/dcmitype/StillImage" />
        <dc:title></dc:title>
      </cc:Work>
    </rdf:RDF>
  </metadata>
  <defs
     id="defs23" />
  <g
     transform="translate(0,-235)"
     id="#231f20ff">
    <path
       style="opacity:1;fill:#fff"
       id="path2"
       d="m 48.256546,238.61451 c 15.03,-4 31.59,-1.97 45.13,5.72 6.43,3.51 11.930004,8.46 16.840004,13.84 -3.32,4.44 -7.67,7.99 -11.600004,11.89 -5.39,-5.8 -11.48,-11.21 -19.06,-13.92 -11.01,-4.39 -23.83,-3.91 -34.51,1.23 -10.78,5.05 -19.31,14.69 -22.97,26.03 -3.73,11.18 -2.61,23.87 3.01,34.24 6.14,11.55 17.66,20.08 30.55,22.44 11.61,2.29 24.06,-0.56 33.64,-7.49 3.5,-2.45 6.28,-5.71 9.35,-8.65 3.920004,3.89 8.270004,7.45 11.600004,11.88 -8.76,10.02 -20.540004,17.54 -33.650004,20.21 -14.81,3.24 -30.82,0.68 -43.82,-7.14 -12.97,-7.71 -22.8799998,-20.43 -27.0099998,-34.96 -4.27,-14.45 -2.83,-30.47 3.94,-43.94 7.5599998,-15.33 21.9899998,-27.12 38.5599998,-31.38 z" />
    <path
       style="opacity:1;fill:#fff"
       id="path4"
       d="m 188.10655,237.65451 c 13.48,-2.52 27.82,-0.48 39.91,6.04 12.33,6.54 22.25,17.51 27.5,30.45 5.87,14.21 5.97,30.7 0.29,44.99 -5.26,13.49 -15.58,24.9 -28.44,31.52 -11.19,5.85 -24.24,7.91 -36.71,6.11 -17.42,-2.48 -33.47,-13.09 -42.58,-28.14 -8.39,-13.39 -10.9,-30.16 -7.32,-45.5 5.05,-22.72 24.47,-41.31 47.35,-45.47 m 5.02,15.98 c -11.31,1.69 -21.86,7.97 -28.66,17.17 -6.89,9.16 -10.05,21.1 -8.29,32.46 1.62,11.45 8.02,22.11 17.34,28.95 8.78,6.54 20.08,9.66 30.98,8.35 12.9,-1.42 24.96,-8.94 31.92,-19.89 6.03,-9.24 8.35,-20.81 6.27,-31.65 -2.19,-11.92 -9.59,-22.77 -19.89,-29.16 -8.72,-5.54 -19.46,-7.8 -29.67,-6.23 z" />
    <path
       style="opacity:1;fill:#fff"
       id="path6"
       d="m 611.10655,249.91451 c 6.92,-8 17.73,-11.42 28.03,-11.74 14.93,-0.88 29.82,5.7 39.71,16.81 -3.66,3.93 -7.39,7.81 -11.52,11.23 -6.29,-5.69 -13.74,-10.64 -22.34,-11.66 -6.57,-0.63 -13.79,-0.06 -19.27,3.98 -4.95,3.67 -6.12,11 -3.38,16.36 2.15,4.5 6.82,7.19 11.49,8.42 9.18,2.38 18.75,3.57 27.44,7.57 8.35,3.68 16.18,9.72 19.75,18.37 3.65,9.09 3.11,20.02 -2.15,28.4 -4.32,7.04 -11.31,12.18 -19,15.02 -12.95,4.84 -27.95,4.26 -40.31,-2.04 -6.86,-3.29 -12.66,-8.34 -17.87,-13.81 3.26,-4.33 7.47,-7.84 11.42,-11.53 4.93,5.22 10.49,10.14 17.43,12.45 9.07,3.2 19.68,2.54 28.05,-2.32 5.93,-3.4 9.5,-10.61 7.82,-17.37 -1.26,-6.9 -7.57,-11.3 -13.76,-13.56 -10.09,-3.62 -21.18,-4.08 -30.85,-8.96 -7.69,-3.57 -14.54,-9.97 -16.63,-18.42 -2.11,-9.3 -0.52,-19.89 5.94,-27.2 z" />
    <path
       style="opacity:1;fill:#fff"
       id="path8"
       d="m 727.22655,245.03451 c 8.42,-5.82 19.03,-7.48 29.07,-6.73 12.75,0.85 24.79,7.28 33.29,16.71 -3.61,3.95 -7.56,7.57 -11.45,11.23 -6.7,-5.98 -14.69,-11.26 -23.91,-11.82 -6.67,-0.36 -14.26,0.42 -19.21,5.4 -4.98,5.04 -4.36,13.9 0.66,18.71 4.77,4.79 11.87,5.36 18.11,6.92 11.58,2.38 23.7,6.08 32.08,14.91 9.09,9.28 10.71,24.55 4.53,35.84 -9.29,16.74 -31.04,22.43 -48.82,18.48 -11.42,-2.64 -21.97,-9.3 -29.3,-18.43 3.97,-3.57 7.58,-7.53 11.62,-11.04 6.07,7.13 14.27,12.87 23.73,14.14 8.53,1.02 18.07,-0.32 24.68,-6.24 4.45,-3.87 6.21,-10.3 4.64,-15.94 -1.34,-5.25 -5.75,-9.07 -10.47,-11.34 -7.69,-3.66 -16.3,-4.43 -24.42,-6.75 -9.1,-2.55 -18.42,-7.1 -23.45,-15.48 -7.1,-12.53 -3.67,-30.5 8.62,-38.57 z" />
    <path
       style="opacity:1;fill:#fff"
       id="path10"
       d="m 517.58655,241.36451 c 0.53,-1.95 3.15,-3.26 4,-0.77 19.88,37.76 39.99,75.41 59.65,113.28 -6.24,-0.03 -12.48,0.13 -18.71,-0.12 -5.18,-9.61 -10.04,-19.4 -15.36,-28.94 -18.27,-0.09 -36.55,-0.18 -54.82,0.04 -5.24,9.6 -10.14,19.37 -15.38,28.97 -6.22,0.11 -12.44,0.06 -18.66,0.03 19.62,-37.57 39.52,-75 59.28,-112.49 m -16.32,66.67 c 12.34,0.16 24.69,0.18 37.03,-0.01 -5.98,-11.76 -12.21,-23.4 -18.43,-35.03 -6.51,11.5 -12.5,23.31 -18.6,35.04 z" />
    <path
       style="opacity:1;fill:#fff"
       id="path12"
       d="m 295.94655,240.08451 c 1.27,0 2.07,0.96 2.78,1.88 20.42,27.52 40.71,55.13 61.2,82.59 2.57,-2.59 4.58,-5.64 6.73,-8.57 18,-24.34 36.04,-48.65 54.01,-73.01 1.05,-1.18 1.94,-3.06 3.81,-2.84 0.64,0.86 0.93,1.83 0.86,2.91 0.02,36.91 -0.05,73.83 0.04,110.74 -5.51,0.18 -11.02,0.11 -16.52,0.07 -0.16,-21.75 0.22,-43.51 -0.19,-65.26 -3.36,3.5 -5.96,7.61 -8.92,11.43 -12.35,16.65 -24.82,33.2 -37.13,49.88 -0.75,1.06 -1.78,1.86 -2.81,2.63 -10.83,-13.78 -21.03,-28.07 -31.6,-42.06 -5.62,-7.22 -10.63,-14.92 -16.65,-21.81 -0.5,21.7 -0.12,43.42 -0.18,65.12 -5.51,0.18 -11.02,0.11 -16.52,0.07 -0.06,-36.64 0.02,-73.27 -0.04,-109.91 0.11,-1.32 -0.24,-3.05 1.13,-3.86 z" />
    <path
       style="opacity:1;fill:#fff"
       id="path16"
       d="m 213.83655,271.07451 c 4,3.77 7.91,7.65 11.67,11.67 -13.28,13.45 -26.73,26.72 -40.04,40.13 -4.17,-3.65 -8.1,-7.59 -11.76,-11.75 13.35,-13.37 26.65,-26.81 40.13,-40.05 z" />
  </g>
</svg>
